<svg width="1340" height="740" viewBox="0 0 1340 740" fill="none" xmlns="http://www.w3.org/2000/svg">
  <defs>
    <linearGradient id="specBlue" x1="0" y1="0" x2="0" y2="1" gradientUnits="objectBoundingBox">
      <stop offset="0" stop-color="#4FA8D4"/>
      <stop offset="1" stop-color="#2578A8"/>
    </linearGradient>
    <linearGradient id="specGreen" x1="0" y1="0" x2="0" y2="1" gradientUnits="objectBoundingBox">
      <stop offset="0" stop-color="#4DCF76"/>
      <stop offset="1" stop-color="#1FA04A"/>
    </linearGradient>
    <linearGradient id="specOrange" x1="0" y1="0" x2="0" y2="1" gradientUnits="objectBoundingBox">
      <stop offset="0" stop-color="#FFC94A"/>
      <stop offset="1" stop-color="#C87800"/>
    </linearGradient>
    <linearGradient id="btnGreen" x1="0" y1="0" x2="0" y2="1" gradientUnits="objectBoundingBox">
      <stop offset="0" stop-color="#2ECC71"/>
      <stop offset="1" stop-color="#1A9950"/>
    </linearGradient>
    <linearGradient id="btnRed" x1="0" y1="0" x2="0" y2="1" gradientUnits="objectBoundingBox">
      <stop offset="0" stop-color="#EF4444"/>
      <stop offset="1" stop-color="#B91C1C"/>
    </linearGradient>
    <linearGradient id="bgMain" x1="0" y1="0" x2="0" y2="740" gradientUnits="userSpaceOnUse">
      <stop offset="0" stop-color="#131B24"/>
      <stop offset="1" stop-color="#0C1219"/>
    </linearGradient>
    <clipPath id="appClip">
      <rect x="1" y="1" width="1338" height="738" rx="10"/>
    </clipPath>
    <filter id="glow">
      <feGaussianBlur stdDeviation="3" result="blur"/>
      <feMerge><feMergeNode in="blur"/><feMergeNode in="SourceGraphic"/></feMerge>
    </filter>
  </defs>

  <!-- Outer frame -->
  <rect x="1" y="1" width="1338" height="738" rx="10" fill="url(#bgMain)" stroke="#2A3F54" stroke-width="2"/>

  <!-- ── TITLE BAR ── -->
  <rect x="0" y="0" width="1340" height="34" rx="10" fill="#0D1721" clip-path="url(#appClip)"/>
  <rect x="0" y="20" width="1340" height="14" fill="#0D1721"/>
  <text x="16" y="22" fill="#7CB8D8" font-family="Arial,sans-serif" font-size="12.5" font-weight="400">FeedZero — Professional Audio Processor</text>
  <!-- window controls -->
  <circle cx="1302" cy="17" r="7" fill="#EF4444" opacity="0.85"/>
  <circle cx="1320" cy="17" r="7" fill="#F59E0B" opacity="0.85"/>
  <circle cx="1316" cy="17" r="0"/> <!-- placeholder -->
  <rect x="1260" y="11" width="14" height="2" fill="#6B8A9E" rx="1"/>
  <rect x="1281" y="9" width="14" height="14" rx="2" fill="none" stroke="#6B8A9E" stroke-width="1.5"/>

  <!-- ── TOP NAV ── -->
  <rect x="0" y="34" width="1340" height="46" fill="#0E1922" clip-path="url(#appClip)"/>
  <rect x="0" y="79" width="1340" height="1" fill="#1D3040"/>
  <!-- Logo -->
  <rect x="14" y="40" width="34" height="34" rx="7" fill="#182A3A" stroke="#2A5070" stroke-width="1.5"/>
  <path d="M22 60c4-8 8-12 13-12 4 0 7 2 10 5" stroke="#30B0D0" stroke-width="3" stroke-linecap="round" fill="none"/>
  <path d="M20 56c5-10 9-14 14-14 4 0 8 2 11 6" stroke="#5DDEF4" stroke-width="2" stroke-linecap="round" fill="none" opacity="0.7"/>
  <text x="52" y="53" fill="#E8F6FF" font-family="Arial,sans-serif" font-size="16" font-weight="700">Feed<tspan fill="#5DDEF4">Zero</tspan></text>
  <text x="52" y="69" fill="#789EB5" font-family="Arial,sans-serif" font-size="10" letter-spacing="0.2">by AUDIOSN</text>
  <!-- Status pills -->
  <g font-family="Arial,sans-serif" font-size="11" font-weight="600">
    <circle cx="186" cy="57" r="4" fill="#2ECC71"/>
    <text x="194" y="61" fill="#8AACBD">MOTEUR : </text><text x="243" y="61" fill="#2EDD80">READY</text>
    <circle cx="310" cy="57" r="4" fill="#A0AEC0"/>
    <text x="318" y="61" fill="#8AACBD">MODE : </text><text x="356" y="61" fill="#CBD5E0">IDLE</text>
    <circle cx="410" cy="57" r="4" fill="#A0AEC0"/>
    <text x="418" y="61" fill="#8AACBD">LAT : </text><text x="448" y="61" fill="#CBD5E0">~5.3ms</text>
    <circle cx="510" cy="57" r="4" fill="#A0AEC0"/>
    <text x="518" y="61" fill="#8AACBD">CPU : </text><text x="548" y="61" fill="#CBD5E0">0%</text>
    <circle cx="592" cy="57" r="4" fill="#A0AEC0"/>
    <text x="600" y="61" fill="#8AACBD">RÉD. : </text><text x="637" y="61" fill="#CBD5E0">—</text>
  </g>
  <!-- FR/EN buttons -->
  <rect x="1110" y="42" width="36" height="24" rx="5" fill="#00AACC"/>
  <text x="1118" y="59" fill="#000" font-family="Arial,sans-serif" font-size="12" font-weight="700">FR</text>
  <rect x="1150" y="42" width="36" height="24" rx="5" fill="#182A38"/>
  <text x="1158" y="59" fill="#9EC7DC" font-family="Arial,sans-serif" font-size="12" font-weight="700">EN</text>
  <rect x="1192" y="42" width="54" height="24" rx="5" fill="#182A38" stroke="#2A4458" stroke-width="1"/>
  <text x="1200" y="59" fill="#9EC7DC" font-family="Arial,sans-serif" font-size="12">? Aide</text>
  <rect x="1252" y="42" width="28" height="24" rx="5" fill="#182A38" stroke="#2A4458" stroke-width="1"/>
  <text x="1260" y="59" fill="#9EC7DC" font-family="Arial,sans-serif" font-size="12">⚙</text>
  <rect x="1286" y="42" width="28" height="24" rx="5" fill="#00AACC"/>
  <text x="1293" y="59" fill="#000" font-family="Arial,sans-serif" font-size="13" font-weight="700">☰</text>

  <!-- ── MAIN CONTROLS PANEL ── -->
  <rect x="14" y="88" width="1312" height="196" rx="8" fill="#0D1822" stroke="#1D3346" stroke-width="1.5"/>
  <rect x="14" y="88" width="5" height="196" rx="3" fill="#00AACC" opacity="0.9"/>
  <!-- Header -->
  <text x="32" y="108" fill="#7CA8C2" font-family="Arial,sans-serif" font-size="11" font-weight="700" letter-spacing="1.2">MAIN CONTROLS</text>
  <text x="1266" y="108" fill="#5A7A8E" font-family="Arial,sans-serif" font-size="15">▼ = ×</text>

  <!-- RÉDUCTION label + value -->
  <text x="32" y="138" fill="#8BB8D0" font-family="Arial,sans-serif" font-size="13" font-weight="600">RÉDUCTION</text>
  <text x="1200" y="138" fill="#2EDD80" font-family="Arial,sans-serif" font-size="22" font-weight="700">75.0</text>
  <text x="1270" y="138" fill="#5A9A78" font-family="Arial,sans-serif" font-size="16">%</text>

  <!-- Progress bar -->
  <rect x="32" y="148" width="1264" height="8" rx="4" fill="#172534"/>
  <rect x="32" y="148" width="948" height="8" rx="4" fill="#00BFD0" opacity="0.7"/>
  <rect x="974" y="144" width="14" height="16" rx="3" fill="#A0D8F0" stroke="#fff" stroke-width="1"/>

  <!-- Buttons row -->
  <rect x="32" y="168" width="328" height="46" rx="7" fill="url(#btnGreen)"/>
  <text x="110" y="197" fill="#FFFFFF" font-family="Arial,sans-serif" font-size="15" font-weight="700">▶ DÉMARRER</text>
  <rect x="368" y="168" width="298" height="46" rx="7" fill="#192A38" stroke="#2A4458" stroke-width="1.5"/>
  <text x="467" y="197" fill="#6A8EA2" font-family="Arial,sans-serif" font-size="15" font-weight="600">■ STOP</text>
  <rect x="674" y="168" width="298" height="46" rx="7" fill="#192A38" stroke="#2A4458" stroke-width="1.5"/>
  <text x="772" y="197" fill="#6A8EA2" font-family="Arial,sans-serif" font-size="15" font-weight="600">🔇 MUTE</text>
  <rect x="980" y="168" width="316" height="46" rx="7" fill="url(#btnRed)"/>
  <text x="1065" y="197" fill="#FFFFFF" font-family="Arial,sans-serif" font-size="15" font-weight="700">🔒 PANIQUE</text>

  <!-- Presets bar -->
  <text x="32" y="238" fill="#7090A4" font-family="Arial,sans-serif" font-size="11.5" font-weight="700">PRÉSETS</text>
  <!-- preset tabs -->
  <g font-family="Arial,sans-serif" font-size="11.5" font-weight="600">
    <rect x="98" y="224" width="58" height="24" rx="5" fill="#192A38" stroke="#2A4458" stroke-width="1"/>
    <text x="110" y="241" fill="#9EC7DC">✤ LIVE</text>
    <rect x="162" y="224" width="58" height="24" rx="5" fill="#192A38" stroke="#2A4458" stroke-width="1"/>
    <text x="171" y="241" fill="#9EC7DC">♦ VOIX</text>
    <rect x="226" y="224" width="78" height="24" rx="5" fill="#192A38" stroke="#2A4458" stroke-width="1"/>
    <text x="233" y="241" fill="#9EC7DC">♫ MUSIQUE</text>
    <rect x="310" y="224" width="94" height="24" rx="5" fill="#C25A10"/>
    <text x="318" y="241" fill="#FFF" font-weight="700">⚡ LIVE SCÈNE</text>
    <rect x="412" y="224" width="64" height="24" rx="5" fill="#192A38" stroke="#2A4458" stroke-width="1"/>
    <text x="424" y="241" fill="#9EC7DC">💾 Sauv.</text>
    <rect x="483" y="224" width="72" height="24" rx="5" fill="#192A38" stroke="#2A4458" stroke-width="1"/>
    <text x="491" y="241" fill="#9EC7DC">⬆ Charger</text>
    <rect x="562" y="224" width="96" height="24" rx="5" fill="#7C3AED"/>
    <text x="572" y="241" fill="#FFF" font-weight="700">✦ Smart Learn</text>
    <rect x="666" y="224" width="70" height="24" rx="5" fill="#192A38" stroke="#2A4458" stroke-width="1"/>
    <text x="678" y="241" fill="#9EC7DC">☰ Journal</text>
  </g>

  <!-- ── SPECTRUM ANALYZER PANEL ── -->
  <rect x="14" y="294" width="1312" height="296" rx="8" fill="#0D1822" stroke="#1D3346" stroke-width="1.5"/>
  <rect x="14" y="294" width="5" height="296" rx="3" fill="#00AACC" opacity="0.9"/>
  <text x="32" y="314" fill="#7CA8C2" font-family="Arial,sans-serif" font-size="11" font-weight="700" letter-spacing="1.2">REAL-TIME SPECTRUM ANALYZER</text>
  <text x="1266" y="314" fill="#5A7A8E" font-family="Arial,sans-serif" font-size="15">▼ = ×</text>

  <!-- Controls row -->
  <text x="32" y="334" fill="#7090A4" font-family="Arial,sans-serif" font-size="10.5">Spectre entrée (dB)</text>
  <g font-family="Arial,sans-serif" font-size="10.5" fill="#9EC7DC">
    <rect x="32" y="340" width="10" height="10" rx="2" fill="#4FA8D4"/>
    <text x="46" y="350">Freeze</text>
    <rect x="96" y="340" width="10" height="10" rx="2" fill="#4FA8D4"/>
    <text x="110" y="350">Peak Hold</text>
    <circle cx="178" cy="345" r="5" fill="none" stroke="#4FA8D4" stroke-width="1.5"/>
    <circle cx="178" cy="345" r="2.5" fill="#4FA8D4"/>
    <text x="187" y="350">Bars</text>
    <circle cx="225" cy="345" r="5" fill="none" stroke="#4A6A80" stroke-width="1.5"/>
    <text x="234" y="350">Line</text>
    <circle cx="272" cy="345" r="5" fill="none" stroke="#4A6A80" stroke-width="1.5"/>
    <text x="281" y="350">Fill</text>
  </g>

  <!-- dB scale lines -->
  <g stroke="#1D3040" stroke-width="1" opacity="0.8">
    <line x1="32" y1="380" x2="1306" y2="380"/>
    <line x1="32" y1="410" x2="1306" y2="410"/>
    <line x1="32" y1="440" x2="1306" y2="440"/>
    <line x1="32" y1="470" x2="1306" y2="470"/>
    <line x1="32" y1="500" x2="1306" y2="500"/>
    <line x1="32" y1="545" x2="1306" y2="545"/>
  </g>
  <g font-family="Arial,sans-serif" font-size="9.5" fill="#4A6078">
    <text x="14" y="384">-12</text>
    <text x="14" y="414">-24</text>
    <text x="14" y="444">-36</text>
    <text x="14" y="474">-48</text>
    <text x="14" y="504">-60</text>
  </g>

  <!-- Frequency tick labels -->
  <g font-family="Arial,sans-serif" font-size="9" fill="#4A6078">
    <text x="60" y="562">50</text>
    <text x="188" y="562">100</text>
    <text x="390" y="562">200</text>
    <text x="600" y="562">500</text>
    <text x="762" y="562">1k</text>
    <text x="960" y="562">2k</text>
    <text x="1096" y="562">5k</text>
    <text x="1196" y="562">10k</text>
    <text x="1262" y="562">20k</text>
  </g>

  <!-- spectrum bars — blue (low freq) -->
  <g fill="url(#specBlue)">
    <rect x="36" y="548" width="8" height="2"/>
    <rect x="46" y="546" width="8" height="4"/>
    <rect x="56" y="544" width="8" height="6"/>
    <rect x="66" y="542" width="8" height="8"/>
    <rect x="76" y="540" width="8" height="10"/>
    <rect x="86" y="538" width="8" height="12"/>
    <rect x="96" y="536" width="8" height="14"/>
    <rect x="106" y="533" width="8" height="17"/>
    <rect x="116" y="530" width="8" height="20"/>
    <rect x="126" y="527" width="8" height="23"/>
    <rect x="136" y="524" width="8" height="26"/>
    <rect x="146" y="521" width="8" height="29"/>
    <rect x="156" y="518" width="8" height="32"/>
    <rect x="166" y="515" width="8" height="35"/>
    <rect x="176" y="511" width="8" height="39"/>
    <rect x="186" y="507" width="8" height="43"/>
    <rect x="196" y="503" width="8" height="47"/>
    <rect x="206" y="499" width="8" height="51"/>
    <rect x="216" y="494" width="8" height="56"/>
    <rect x="226" y="487" width="8" height="63"/>
  </g>

  <!-- spectrum bars — green (mid freq) -->
  <g fill="url(#specGreen)">
    <rect x="236" y="490" width="14" height="60"/>
    <rect x="252" y="484" width="14" height="66"/>
    <rect x="268" y="481" width="14" height="69"/>
    <rect x="284" y="478" width="14" height="72"/>
    <rect x="300" y="475" width="14" height="75"/>
    <rect x="316" y="472" width="14" height="78"/>
    <rect x="332" y="468" width="14" height="82"/>
    <rect x="348" y="464" width="14" height="86"/>
    <rect x="364" y="462" width="14" height="88"/>
    <rect x="380" y="465" width="14" height="85"/>
    <rect x="396" y="463" width="14" height="87"/>
    <rect x="412" y="461" width="14" height="89"/>
    <rect x="428" y="460" width="14" height="90"/>
    <rect x="444" y="462" width="14" height="88"/>
    <rect x="460" y="465" width="14" height="85"/>
    <rect x="476" y="468" width="14" height="82"/>
    <rect x="492" y="466" width="14" height="84"/>
    <rect x="508" y="463" width="14" height="87"/>
    <rect x="524" y="461" width="14" height="89"/>
    <rect x="540" y="459" width="14" height="91"/>
    <rect x="556" y="457" width="14" height="93"/>
    <rect x="572" y="455" width="14" height="95"/>
    <rect x="588" y="457" width="14" height="93"/>
    <rect x="604" y="460" width="14" height="90"/>
    <rect x="620" y="462" width="14" height="88"/>
    <rect x="636" y="465" width="14" height="85"/>
  </g>

  <!-- orange spike (feedback zone ~1kHz) -->
  <g fill="url(#specOrange)">
    <rect x="652" y="445" width="14" height="105"/>
    <rect x="668" y="430" width="14" height="120"/>
  </g>

  <!-- back to green (upper mid + high) -->
  <g fill="url(#specGreen)">
    <rect x="684" y="462" width="14" height="88"/>
    <rect x="700" y="465" width="14" height="85"/>
    <rect x="716" y="468" width="14" height="82"/>
    <rect x="732" y="472" width="14" height="78"/>
    <rect x="748" y="476" width="14" height="74"/>
    <rect x="764" y="480" width="14" height="70"/>
    <rect x="780" y="483" width="14" height="67"/>
    <rect x="796" y="486" width="14" height="64"/>
    <rect x="812" y="489" width="14" height="61"/>
    <rect x="828" y="492" width="14" height="58"/>
    <rect x="844" y="495" width="14" height="55"/>
    <rect x="860" y="497" width="14" height="53"/>
    <rect x="876" y="499" width="14" height="51"/>
    <rect x="892" y="501" width="14" height="49"/>
    <rect x="908" y="503" width="14" height="47"/>
    <rect x="924" y="505" width="14" height="45"/>
  </g>

  <!-- high freq blue fade -->
  <g fill="url(#specBlue)">
    <rect x="940" y="508" width="12" height="42"/>
    <rect x="954" y="511" width="12" height="39"/>
    <rect x="968" y="514" width="12" height="36"/>
    <rect x="982" y="517" width="12" height="33"/>
    <rect x="996" y="519" width="12" height="31"/>
    <rect x="1010" y="521" width="12" height="29"/>
    <rect x="1024" y="523" width="12" height="27"/>
    <rect x="1038" y="525" width="12" height="25"/>
    <rect x="1052" y="527" width="12" height="23"/>
    <rect x="1066" y="529" width="12" height="21"/>
    <rect x="1080" y="530" width="12" height="20"/>
    <rect x="1094" y="531" width="12" height="19"/>
    <rect x="1108" y="532" width="12" height="18"/>
    <rect x="1122" y="533" width="12" height="17"/>
    <rect x="1136" y="534" width="12" height="16"/>
    <rect x="1150" y="535" width="12" height="15"/>
    <rect x="1164" y="536" width="12" height="14"/>
    <rect x="1178" y="537" width="12" height="13"/>
    <rect x="1192" y="538" width="12" height="12"/>
    <rect x="1206" y="539" width="12" height="11"/>
    <rect x="1220" y="540" width="12" height="10"/>
    <rect x="1234" y="541" width="12" height="9"/>
    <rect x="1248" y="542" width="12" height="8"/>
    <rect x="1262" y="543" width="12" height="7"/>
    <rect x="1276" y="543" width="12" height="7"/>
    <rect x="1290" y="544" width="10" height="6"/>
  </g>

  <!-- Peak hold markers (white horizontal lines) -->
  <g stroke="#E2EEF8" stroke-width="2" opacity="0.75">
    <line x1="236" y1="470" x2="250" y2="470"/>
    <line x1="316" y1="452" x2="330" y2="452"/>
    <line x1="396" y1="440" x2="410" y2="440"/>
    <line x1="428" y1="434" x2="442" y2="434"/>
    <line x1="460" y1="430" x2="474" y2="430"/>
    <line x1="492" y1="428" x2="506" y2="428"/>
    <line x1="524" y1="425" x2="538" y2="425"/>
    <line x1="540" y1="422" x2="554" y2="422"/>
    <line x1="588" y1="418" x2="636" y2="418"/>
    <line x1="652" y1="408" x2="682" y2="408"/>
    <line x1="716" y1="420" x2="730" y2="420"/>
    <line x1="748" y1="430" x2="762" y2="430"/>
    <line x1="796" y1="440" x2="810" y2="440"/>
    <line x1="860" y1="448" x2="874" y2="448"/>
    <line x1="924" y1="458" x2="938" y2="458"/>
    <line x1="940" y1="466" x2="954" y2="466"/>
    <line x1="1080" y1="482" x2="1094" y2="482"/>
    <line x1="1192" y1="494" x2="1206" y2="494"/>
  </g>

  <!-- ── SETTINGS PANEL ── -->
  <rect x="14" y="600" width="1312" height="128" rx="8" fill="#0D1822" stroke="#1D3346" stroke-width="1.5"/>
  <rect x="14" y="600" width="5" height="128" rx="3" fill="#00AACC" opacity="0.9"/>
  <text x="32" y="620" fill="#7CA8C2" font-family="Arial,sans-serif" font-size="11" font-weight="700" letter-spacing="1.2">SETTINGS</text>
  <text x="1266" y="620" fill="#5A7A8E" font-family="Arial,sans-serif" font-size="15">▼ = ×</text>

  <!-- Tabs -->
  <g font-family="Arial,sans-serif" font-size="11.5" font-weight="600">
    <rect x="32" y="628" width="132" height="28" rx="6" fill="#192A38" stroke="#2A5060" stroke-width="1.5"/>
    <text x="48" y="647" fill="#9EC7DC">◈ Audio Configuration</text>
    <rect x="172" y="628" width="130" height="28" rx="6" fill="#192A38" stroke="#2A4458" stroke-width="1"/>
    <text x="190" y="647" fill="#6A8EA2">⚙ Advanced Settings</text>
    <rect x="310" y="628" width="116" height="28" rx="6" fill="#00AACC" opacity="0.15" stroke="#00AACC" stroke-width="1.5"/>
    <text x="326" y="647" fill="#00DDFF">◉ Model Training</text>
  </g>

  <!-- Tab content preview -->
  <g font-family="Arial,sans-serif" font-size="11">
    <text x="32" y="684" fill="#6A8EA2" letter-spacing="0.4">ROUTING</text>
    <rect x="88" y="672" width="96" height="24" rx="5" fill="#192A48" stroke="#3060A0" stroke-width="1.5"/>
    <text x="100" y="688" fill="#9EC7DC" font-size="11" font-weight="600">☐ Standalone</text>
    <rect x="192" y="672" width="100" height="24" rx="5" fill="#192A38" stroke="#2A4458" stroke-width="1"/>
    <text x="204" y="688" fill="#9EC7DC" font-size="11" font-weight="600">⋈ Dante Insert</text>
    <rect x="300" y="672" width="96" height="24" rx="5" fill="#192A38" stroke="#2A4458" stroke-width="1"/>
    <text x="312" y="688" fill="#9EC7DC" font-size="11" font-weight="600">⊠ DAW Plugin</text>
    <text x="900" y="688" fill="#3A8EA8" font-size="11">Sélectionnez les périphériques IN/OUT</text>
  </g>
</svg>
